<svg aria-hidden="true" focusable="false" style="position:absolute;overflow:hidden;top:0;left:0;width:100%" viewBox="0 0 200 360" fill="none"><g clip-path="url(#clip0_305_925063)"><rect width="200" height="360" rx="12" fill="#fff"></rect><path d="M517.644-2.5l-432 241.5m0 0l-91.5-51.5m91.5 51.5L-48.5 313.5M40.644-10.5l366.949 208.765c1.347.766 1.349 2.707.003 3.475L118.144 367" stroke="#D5DAE2" stroke-width="8"></path><path d="M126.644 216l259.5 149M316.644-5L129.036 102.264c-1.343.768-1.343 2.704-.001 3.473L226.5 161.5" stroke="#D5DAE2" stroke-width="4"></path><path d="M154 23.851v-48.68l28 16.255v48.596l-28-16.17z" fill="#ECEFF5"></path><path d="M182 40.022V-8.574l28-16.255v48.68l-28 16.17zM84.129 331.5V180.287l37.129-21.496v151.288L84.128 331.5z" fill="#BBC2CE"></path><path d="M47 310.079V158.791l37.129 21.496V331.5L47 310.079z" fill="#ECEFF5"></path><path d="M84.129 180.288L47 158.793l37.129-21.422 37.128 21.422-37.128 21.495z" fill="#F6F8FB"></path><path d="M84.128 177.016V128l-31.485 30.793 31.485 18.223z" fill="#D5DAE2"></path><path d="M115.539 158.793L84.129 128v49.016l31.41-18.223z" fill="#BBC2CE"></path><path d="M93 326.607v-48.68l28 16.255v48.596l-28-16.171z" fill="#ECEFF5"></path><path d="M121 342.778v-48.596l28-16.255v48.68l-28 16.171z" fill="#BBC2CE"></path><path d="M149 278.171L121 262l-28 16.171 28 16.255 28-16.255z" fill="#F6F8FB"></path><path d="M128 38L-6 114" stroke="#D5DAE2" stroke-width="4"></path><path d="M27.08 79.784L-4 61.656V49.722l31.08 17.977v12.085z" fill="#ECEFF5"></path><path d="M82 47.915L27.08 79.79V67.706L82 35.981v11.934z" fill="#BBC2CE"></path><path d="M50.92 18L82 35.977 27.08 67.701-4 49.724 50.92 18z" fill="#F6F8FB"></path><path fill-rule="evenodd" clip-rule="evenodd" d="M97.799 120.609l-10.143 6.24-10.142-18.154c-2.006-3.492-3.372-7.242-3.926-10.776-.553-3.534-.27-6.694.816-9.079 1.086-2.385 2.924-3.889 5.283-4.321 2.36-.433 5.132.226 7.97 1.892 2.836 1.666 5.61 4.265 7.968 7.468 2.359 3.203 4.197 6.867 5.283 10.527 1.086 3.66 1.37 7.154.816 10.038-.553 2.884-1.92 5.03-3.925 6.165zm-10.143-12.081c3.169 1.858 5.738.351 5.738-3.365s-2.569-8.235-5.738-10.093c-3.169-1.858-5.737-.352-5.737 3.364 0 3.717 2.569 8.235 5.737 10.094z" fill="#961A09"></path><path fill-rule="evenodd" clip-rule="evenodd" d="M94.486 123.137l-10.142 6.24L74.2 111.223c-2.006-3.492-3.372-7.242-3.925-10.776-.554-3.534-.27-6.694.816-9.079 1.086-2.385 2.924-3.89 5.283-4.321 2.359-.433 5.132.226 7.969 1.892 2.837 1.666 5.61 4.265 7.969 7.469 2.358 3.203 4.197 6.866 5.283 10.527 1.085 3.66 1.37 7.153.816 10.037-.554 2.884-1.92 5.03-3.926 6.165zm-10.142-12.084c3.169 1.859 5.737.352 5.737-3.364 0-3.716-2.569-8.235-5.737-10.093-3.169-1.858-5.738-.352-5.738 3.364 0 3.717 2.57 8.235 5.738 10.094z" fill="#F13219"></path></g><defs><clipPath id="clip0_305_925063"><rect width="200" height="360" rx="12" fill="#fff"></rect></clipPath></defs></svg>